<svg width="83" height="87" viewBox="0 0 83 87" fill="none" xmlns="http://www.w3.org/2000/svg">
<path fill-rule="evenodd" clip-rule="evenodd" d="M10.5237 3.29129C9.95956 2.30246 9.28988 1.51807 8.55285 0.982923C7.81582 0.447772 7.02588 0.172333 6.22813 0.172333C4.61699 0.172333 3.07184 1.29425 1.93259 3.29129C0.793343 5.28832 0.15332 7.99688 0.15332 10.8211C0.15332 13.6453 0.793343 16.3539 1.93259 18.3509L22.1687 53.8129L22.2112 53.8874C23.8645 56.7261 26.0867 58.316 28.401 58.316C30.7153 58.316 32.9374 56.7261 34.5908 53.8874L34.6333 53.8129L44.9608 35.7094L59.2104 62.125L52.8962 73.1936C52.2601 74.3099 51.8271 75.7315 51.6517 77.279C51.4764 78.8264 51.5665 80.4303 51.9108 81.888C52.2552 83.3457 52.8382 84.5918 53.5863 85.469C54.3344 86.3462 55.214 86.8151 56.114 86.8164H78.2869C79.4946 86.8164 80.6528 85.9755 81.5067 84.4785C82.3607 82.9816 82.8404 80.9513 82.8404 78.8343V39.9879C82.8396 38.4102 82.5722 36.8683 82.0717 35.5569C81.5713 34.2455 80.8605 33.2235 80.0289 32.62C79.1973 32.0164 78.2824 31.8583 77.3996 32.1657C76.5168 32.4731 75.7058 33.2322 75.069 34.3471L67.8015 47.0867L51.3844 16.6481C50.5732 15.1804 49.6045 14.0082 48.534 13.199C47.4635 12.3898 46.3124 11.9595 45.1467 11.9328C43.981 11.9061 42.8238 12.2835 41.7416 13.0434C40.6594 13.8033 39.6736 14.9307 38.8408 16.3607L38.7983 16.4246L28.3979 34.6452L10.5237 3.29129Z" fill="#003249" fill-opacity="0.3"/>
</svg>
