<svg width="84" height="84" viewBox="0 0 84 84" fill="none" xmlns="http://www.w3.org/2000/svg">
<path fill-rule="evenodd" clip-rule="evenodd" d="M10.6593 80.8594C9.50669 82.7894 7.94336 83.8737 6.31327 83.8737C4.68317 83.8737 3.11984 82.7894 1.96719 80.8594C0.814544 78.9294 0.166992 76.3117 0.166992 73.5823C0.166992 70.8528 0.814544 68.2352 1.96719 66.3051L22.4413 32.0331L22.4843 31.9611C24.1572 29.2177 26.4054 27.6812 28.747 27.6812C31.0885 27.6812 33.3368 29.2177 35.0096 31.9611L35.0526 32.0331L45.5016 49.5291L59.9189 24L53.5303 13.3029C52.8868 12.224 52.4487 10.8501 52.2713 9.35455C52.0938 7.85901 52.1851 6.30898 52.5334 4.90022C52.8818 3.49145 53.4717 2.28714 54.2286 1.4394C54.9855 0.591648 55.8754 0.138487 56.786 0.137146H79.2198C80.4417 0.137146 81.6135 0.949898 82.4775 2.39661C83.3415 3.84332 83.8269 5.80548 83.8269 7.85143V45.4149C83.8261 46.9396 83.5555 48.4298 83.0492 49.6971C82.5429 50.9645 81.8236 51.9522 80.9823 52.5355C80.1409 53.1188 79.2152 53.2716 78.3221 52.9745C77.4289 52.6774 76.6084 51.9438 75.9641 50.8663L68.611 38.544L52.0008 67.9714C51.18 69.3899 50.2 70.5227 49.1169 71.3047C48.0338 72.0868 46.8691 72.5027 45.6897 72.5285C44.5103 72.5543 43.3395 72.1895 42.2446 71.4551C41.1496 70.7207 40.1522 69.6312 39.3096 68.2491L39.2666 68.1771L28.7439 50.568L10.6593 80.8594Z" fill="#003249" fill-opacity="0.3"/>
</svg>
